<mxfile host="app.diagrams.net" modified="2023-10-07T18:46:11.812Z" agent="Mozilla/5.0 (Windows NT 10.0; Win64; x64; rv:109.0) Gecko/20100101 Firefox/117.0" etag="Od-HME1_QFo57BiydzDE" version="21.6.2" type="github">
  <diagram name="Page-1" id="_LPVEoF3XmgwlrlQNc1Z">
    <mxGraphModel dx="1434" dy="820" grid="1" gridSize="10" guides="1" tooltips="1" connect="1" arrows="1" fold="1" page="1" pageScale="1" pageWidth="1600" pageHeight="900" math="0" shadow="0">
      <root>
        <mxCell id="0" />
        <mxCell id="1" parent="0" />
        <mxCell id="8saEMStAEFfvwQkuhHxn-32" value="Region" style="outlineConnect=0;gradientColor=none;html=1;whiteSpace=wrap;fontSize=12;fontStyle=0;shape=mxgraph.aws4.group;grIcon=mxgraph.aws4.group_region;strokeColor=#879196;fillColor=none;verticalAlign=top;align=left;spacingLeft=30;fontColor=#879196;dashed=1;hachureGap=4;fontFamily=Verdana;" vertex="1" parent="1">
          <mxGeometry x="350" y="230" width="450" height="380" as="geometry" />
        </mxCell>
        <mxCell id="8saEMStAEFfvwQkuhHxn-33" value="&lt;font style=&quot;font-size: 12px;&quot;&gt;us-west-1&lt;/font&gt;" style="text;html=1;strokeColor=none;fillColor=none;align=center;verticalAlign=middle;whiteSpace=wrap;rounded=0;fontSize=20;fontFamily=Verdana;" vertex="1" parent="1">
          <mxGeometry x="432" y="230" width="70" height="20" as="geometry" />
        </mxCell>
        <mxCell id="8saEMStAEFfvwQkuhHxn-34" value="Availability zone" style="outlineConnect=0;gradientColor=none;html=1;whiteSpace=wrap;fontSize=12;fontStyle=0;shape=mxgraph.aws4.group;grIcon=mxgraph.aws4.group_availability_zone;strokeColor=#545B64;fillColor=none;verticalAlign=top;align=left;spacingLeft=30;fontColor=#545B64;dashed=1;hachureGap=4;fontFamily=Verdana;" vertex="1" parent="1">
          <mxGeometry x="360" y="260" width="430" height="340" as="geometry" />
        </mxCell>
        <mxCell id="8saEMStAEFfvwQkuhHxn-35" value="&lt;font style=&quot;font-size: 12px;&quot;&gt;us-west-1 b&lt;br&gt;&lt;/font&gt;" style="text;html=1;strokeColor=none;fillColor=none;align=center;verticalAlign=middle;whiteSpace=wrap;rounded=0;fontSize=20;fontFamily=Verdana;" vertex="1" parent="1">
          <mxGeometry x="502" y="260" width="78" height="20" as="geometry" />
        </mxCell>
        <mxCell id="8saEMStAEFfvwQkuhHxn-36" value="VPC" style="points=[[0,0],[0.25,0],[0.5,0],[0.75,0],[1,0],[1,0.25],[1,0.5],[1,0.75],[1,1],[0.75,1],[0.5,1],[0.25,1],[0,1],[0,0.75],[0,0.5],[0,0.25]];outlineConnect=0;gradientColor=none;html=1;whiteSpace=wrap;fontSize=12;fontStyle=0;container=1;pointerEvents=0;collapsible=0;recursiveResize=0;shape=mxgraph.aws4.group;grIcon=mxgraph.aws4.group_vpc;strokeColor=#248814;fillColor=none;verticalAlign=top;align=left;spacingLeft=30;fontColor=#AAB7B8;dashed=0;hachureGap=4;fontFamily=Verdana;" vertex="1" parent="1">
          <mxGeometry x="370" y="290" width="410" height="300" as="geometry" />
        </mxCell>
        <mxCell id="8saEMStAEFfvwQkuhHxn-37" value="&lt;font style=&quot;font-size: 12px;&quot; face=&quot;Verdana&quot;&gt;vpc-091d928f4cef0fd28&lt;/font&gt;" style="text;html=1;strokeColor=none;fillColor=none;align=center;verticalAlign=middle;whiteSpace=wrap;rounded=0;fontSize=20;fontFamily=Architects Daughter;" vertex="1" parent="8saEMStAEFfvwQkuhHxn-36">
          <mxGeometry x="52" width="180" height="22" as="geometry" />
        </mxCell>
        <mxCell id="8saEMStAEFfvwQkuhHxn-42" value="Public subnet" style="points=[[0,0],[0.25,0],[0.5,0],[0.75,0],[1,0],[1,0.25],[1,0.5],[1,0.75],[1,1],[0.75,1],[0.5,1],[0.25,1],[0,1],[0,0.75],[0,0.5],[0,0.25]];outlineConnect=0;gradientColor=none;html=1;whiteSpace=wrap;fontSize=12;fontStyle=0;container=1;pointerEvents=0;collapsible=0;recursiveResize=0;shape=mxgraph.aws4.group;grIcon=mxgraph.aws4.group_security_group;grStroke=0;strokeColor=#248814;fillColor=#E9F3E6;verticalAlign=top;align=left;spacingLeft=30;fontColor=#248814;dashed=0;hachureGap=4;fontFamily=Verdana;" vertex="1" parent="8saEMStAEFfvwQkuhHxn-36">
          <mxGeometry x="92" y="38" width="308" height="189" as="geometry" />
        </mxCell>
        <mxCell id="8saEMStAEFfvwQkuhHxn-44" value="" style="points=[[0,0,0],[0.25,0,0],[0.5,0,0],[0.75,0,0],[1,0,0],[0,1,0],[0.25,1,0],[0.5,1,0],[0.75,1,0],[1,1,0],[0,0.25,0],[0,0.5,0],[0,0.75,0],[1,0.25,0],[1,0.5,0],[1,0.75,0]];outlineConnect=0;fontColor=#232F3E;gradientColor=#F78E04;gradientDirection=north;fillColor=#D05C17;strokeColor=#ffffff;dashed=0;verticalLabelPosition=bottom;verticalAlign=top;align=center;html=1;fontSize=12;fontStyle=0;aspect=fixed;shape=mxgraph.aws4.resourceIcon;resIcon=mxgraph.aws4.ec2;hachureGap=4;fontFamily=Architects Daughter;fontSource=https%3A%2F%2Ffonts.googleapis.com%2Fcss%3Ffamily%3DArchitects%2BDaughter;" vertex="1" parent="8saEMStAEFfvwQkuhHxn-42">
          <mxGeometry x="208" y="63.25" width="62.5" height="62.5" as="geometry" />
        </mxCell>
        <mxCell id="8saEMStAEFfvwQkuhHxn-48" value="" style="edgeStyle=orthogonalEdgeStyle;rounded=0;orthogonalLoop=1;jettySize=auto;html=1;startArrow=classic;startFill=1;entryX=0;entryY=0.5;entryDx=0;entryDy=0;entryPerimeter=0;" edge="1" parent="8saEMStAEFfvwQkuhHxn-42" source="8saEMStAEFfvwQkuhHxn-49" target="8saEMStAEFfvwQkuhHxn-44">
          <mxGeometry relative="1" as="geometry">
            <mxPoint x="146" y="94.5" as="targetPoint" />
          </mxGeometry>
        </mxCell>
        <mxCell id="8saEMStAEFfvwQkuhHxn-49" value="" style="sketch=0;outlineConnect=0;fontColor=#232F3E;gradientColor=none;fillColor=#4D27AA;strokeColor=none;dashed=0;verticalLabelPosition=bottom;verticalAlign=top;align=center;html=1;fontSize=12;fontStyle=0;aspect=fixed;pointerEvents=1;shape=mxgraph.aws4.internet_gateway;" vertex="1" parent="8saEMStAEFfvwQkuhHxn-42">
          <mxGeometry x="20" y="63.25" width="62.5" height="62.5" as="geometry" />
        </mxCell>
        <mxCell id="8saEMStAEFfvwQkuhHxn-51" value="Port 80" style="text;html=1;strokeColor=none;fillColor=none;align=center;verticalAlign=middle;whiteSpace=wrap;rounded=0;" vertex="1" parent="8saEMStAEFfvwQkuhHxn-42">
          <mxGeometry x="70.5" y="63.25" width="137.5" height="30" as="geometry" />
        </mxCell>
        <mxCell id="8saEMStAEFfvwQkuhHxn-41" value="&lt;font face=&quot;Verdana&quot;&gt;t3.large&lt;/font&gt;" style="text;html=1;strokeColor=none;fillColor=none;align=center;verticalAlign=middle;whiteSpace=wrap;rounded=0;fontSize=12;fontFamily=Architects Daughter;" vertex="1" parent="8saEMStAEFfvwQkuhHxn-42">
          <mxGeometry x="208" y="42" width="125" height="15" as="geometry" />
        </mxCell>
        <mxCell id="8saEMStAEFfvwQkuhHxn-55" value="" style="outlineConnect=0;dashed=0;verticalLabelPosition=bottom;verticalAlign=top;align=center;html=1;shape=mxgraph.aws3.internet_3;fillColor=#D2D3D3;gradientColor=none;" vertex="1" parent="1">
          <mxGeometry x="227" y="411" width="79.5" height="54" as="geometry" />
        </mxCell>
        <mxCell id="8saEMStAEFfvwQkuhHxn-56" style="edgeStyle=orthogonalEdgeStyle;rounded=0;orthogonalLoop=1;jettySize=auto;html=1;entryX=1;entryY=0.7;entryDx=0;entryDy=0;entryPerimeter=0;startArrow=classic;startFill=1;" edge="1" parent="1" source="8saEMStAEFfvwQkuhHxn-49" target="8saEMStAEFfvwQkuhHxn-55">
          <mxGeometry relative="1" as="geometry" />
        </mxCell>
        <mxCell id="8saEMStAEFfvwQkuhHxn-60" style="edgeStyle=orthogonalEdgeStyle;rounded=0;orthogonalLoop=1;jettySize=auto;html=1;exitX=0.5;exitY=1;exitDx=0;exitDy=0;exitPerimeter=0;entryX=0.07;entryY=0.93;entryDx=0;entryDy=0;entryPerimeter=0;" edge="1" parent="1" source="8saEMStAEFfvwQkuhHxn-44" target="8saEMStAEFfvwQkuhHxn-55">
          <mxGeometry relative="1" as="geometry">
            <Array as="points">
              <mxPoint x="700" y="454" />
              <mxPoint x="700" y="530" />
              <mxPoint x="233" y="530" />
            </Array>
          </mxGeometry>
        </mxCell>
        <mxCell id="8saEMStAEFfvwQkuhHxn-62" value="Port 22" style="text;html=1;strokeColor=none;fillColor=none;align=center;verticalAlign=middle;whiteSpace=wrap;rounded=0;" vertex="1" parent="1">
          <mxGeometry x="530" y="525" width="58" height="30" as="geometry" />
        </mxCell>
      </root>
    </mxGraphModel>
  </diagram>
</mxfile>
